<?xml version="1.0" encoding="utf-8"?>
<!-- Generator: Adobe Illustrator 26.0.1, SVG Export Plug-In . SVG Version: 6.00 Build 0)  -->
<svg version="1.1" id="Calque_1" xmlns="http://www.w3.org/2000/svg" xmlns:xlink="http://www.w3.org/1999/xlink" x="0px" y="0px"
	 viewBox="0 0 700 700" style="enable-background:new 0 0 700 700;" xml:space="preserve">
<g>
	<path d="M490.6,147.3L316.4,321.4l-14,79l79-14l174.2-173.6L490.6,147.3z M539.8,212.8l-15.7,15.7l-49.3-49.3l15.7-15.7
		L539.8,212.8z M378.6,374.1l-20.7-21.3l137.8-137.2l20.7,20.7L378.6,374.1z M467,186.5l20.7,20.7L350,345l-20.7-20.7L467,186.5z
		 M325.4,336l42,42l-51,9L325.4,336z"/>
	<path d="M441.8,357.3c-3.4,0-5.6,2.2-5.6,5.6V425c0,14.6-11.8,25.8-25.8,25.8l-226.8,0c-14.6,0-25.8-11.8-25.8-25.8l0-290.1
		c0-14.6,11.8-25.8,25.8-25.8h226.8c14.6,0,25.8,11.8,25.8,25.8l0,33c0,3.4,2.2,5.6,5.6,5.6c3.4,0,5.6-2.2,5.6-5.6v-33
		c0-20.7-16.8-37-37-37H183.7c-20.7,0-37,16.8-37,37V425c0,20.7,16.8,37,37,37h226.8c20.7,0,37-16.8,37-37v-62.2
		C447.4,359.5,445.2,357.3,441.8,357.3L441.8,357.3z"/>
	<g>
		<defs>
			<polyline id="SVGID_1_" points="1157.3,644 1157.3,1344 457.3,1344 			"/>
		</defs>
		<clipPath id="SVGID_00000177441868734560742440000005443185375005966768_">
			<use xlink:href="#SVGID_1_"  style="overflow:visible;"/>
		</clipPath>
	</g>
	<g>
		<defs>
			<polyline id="SVGID_00000039134882886648457180000001962393060144014006_" points="1176.2,644 1176.2,1344 476.2,1344 			"/>
		</defs>
		<clipPath id="SVGID_00000125603672479126152710000013264604616009630851_">
			<use xlink:href="#SVGID_00000039134882886648457180000001962393060144014006_"  style="overflow:visible;"/>
		</clipPath>
	</g>
	<g>
		<defs>
			<polyline id="SVGID_00000000903349778889106850000008488988725667518646_" points="1208.6,644 1208.6,1344 508.6,1344 			"/>
		</defs>
		<clipPath id="SVGID_00000178168237331485471240000004345338047929218474_">
			<use xlink:href="#SVGID_00000000903349778889106850000008488988725667518646_"  style="overflow:visible;"/>
		</clipPath>
	</g>
	<g>
		<defs>
			<polyline id="SVGID_00000063611630672513237550000013804456026391051905_" points="1227.6,644 1227.6,1344 527.6,1344 			"/>
		</defs>
		<clipPath id="SVGID_00000061431862056027875410000012843552543762794934_">
			<use xlink:href="#SVGID_00000063611630672513237550000013804456026391051905_"  style="overflow:visible;"/>
		</clipPath>
	</g>
</g>
</svg>
