<?xml version="1.0" encoding="utf-8"?>
<!-- Generator: Adobe Illustrator 26.0.1, SVG Export Plug-In . SVG Version: 6.00 Build 0)  -->
<svg version="1.1" id="Calque_1" xmlns="http://www.w3.org/2000/svg" xmlns:xlink="http://www.w3.org/1999/xlink" x="0px" y="0px"
	 viewBox="0 0 700 700" style="enable-background:new 0 0 700 700;" xml:space="preserve">
<style type="text/css">
	.st0{fill:#FFFFFF;}
</style>
<path class="st0" d="M436.9,112c-21.5-0.1-42.2,8.5-57.3,23.7L205,310.3c-14.8,14.7-23,34.6-23,55.4V448h82.3
	c20.8,0.1,40.8-8.2,55.4-23l174.5-174.6c15.2-15.2,23.7-35.9,23.7-57.4c0-21.5-8.6-42.1-23.8-57.4C479,120.5,458.4,112,436.9,112
	L436.9,112z M295.9,401.3c-8.4,8.4-19.8,13.1-31.6,13.1h-48.7v-48.7c0-11.9,4.7-23.3,13.1-31.7l131.8-131.8l67.2,67.2L295.9,401.3z
	 M470.5,226.7l-19,19l-67.2-67.2l19-19c8.8-9.4,21-14.8,33.9-15.1c12.9-0.2,25.3,4.8,34.4,13.9c9.1,9.1,14.1,21.5,13.9,34.4
	C485.3,205.7,479.9,217.9,470.5,226.7L470.5,226.7z"/>
</svg>
